<svg width="256" height="68" viewBox="0 0 256 68" fill="none" xmlns="http://www.w3.org/2000/svg">
<path opacity="0.5" d="M39.4691 48.2663C39.4691 48.2663 27.6321 45.1115 16.8912 46.9337L15.2412 39.1298C15.2412 39.1298 29.7693 38.2597 38.1973 40.3266L39.4691 48.2663Z" fill="url(#paint0_linear_109_26)"/>
<path opacity="0.5" d="M41.4035 33.5556C41.4035 33.5556 25.9409 29.4359 11.9 31.8154L9.74878 21.6039C9.74878 21.6039 28.728 20.4621 39.7394 23.1684L41.4023 33.5556H41.4035Z" fill="url(#paint1_linear_109_26)"/>
<g filter="url(#filter0_d_109_26)">
<path d="M11.6692 17.3351L36.0458 28.4425C40.2124 30.5914 41.4034 33.5553 41.4034 33.5553L41.3624 30.8619L41.3085 26.8381L41.2945 26.3077C41.2125 21.223 38.197 16.6418 33.5573 14.6018L11.1692 4.71934C5.20384 1.83504 4 0 4 0L4.02694 1.56335L4.06792 4.37739L4.0808 5.69716C4.11508 8.15621 4.8463 10.5551 6.18954 12.6151C7.53278 14.6752 9.4329 16.3118 11.6692 17.3351V17.3351Z" fill="#2F91E0"/>
</g>
<g filter="url(#filter1_d_109_26)">
<path d="M15.8498 35.3773L35.2202 44.2C38.5342 45.9132 39.4828 48.2659 39.4828 48.2659L39.4547 46.131L39.4008 42.9352V42.5137C39.3749 40.5385 38.7824 38.6124 37.6938 36.9641C36.6052 35.3158 35.0662 34.0148 33.2598 33.2155L15.4716 25.3695C10.723 23.0859 9.7627 21.6174 9.7627 21.6174L9.77558 22.8681L9.80368 25.0978L9.81656 26.1447C9.8436 28.0971 10.4251 30.0016 11.4934 31.6361C12.5616 33.2705 14.0725 34.5676 15.8498 35.3761V35.3773Z" fill="#2F91E0"/>
</g>
<g filter="url(#filter2_d_109_26)">
<path d="M19.8535 49.8579L34.4636 56.8045C36.9661 58.1512 37.6687 60.0003 37.6687 60.0003L37.6418 58.314L37.602 55.7986V55.459C37.547 52.2772 35.7482 49.4222 32.9623 48.1446L19.5549 41.9708C15.9703 40.1756 15.2537 39.0198 15.2537 39.0198L15.2665 39.9988L15.2935 41.753L15.3075 42.5692C15.3473 45.7229 17.1203 48.565 19.8524 49.8567L19.8535 49.8579Z" fill="#2F91E0"/>
</g>
<path d="M62.0112 46V21.1337H77.0184V23.8049H65.0223V32.207H76.2413V34.8782H65.0223V43.3288H77.2126V46H62.0112ZM88.6293 46V43.8145L102.034 23.8049H88.4836V21.1337H105.628V23.3192L92.2232 43.3288H105.773V46H88.6293Z" fill="#2F91E0"/>
<path d="M137.843 28.9044H134.832C134.654 28.0383 134.342 27.2774 133.897 26.6218C133.46 25.9661 132.926 25.4157 132.294 24.9705C131.671 24.5172 130.979 24.1772 130.218 23.9506C129.457 23.7239 128.664 23.6106 127.838 23.6106C126.333 23.6106 124.969 23.9911 123.747 24.7519C122.532 25.5128 121.565 26.6339 120.845 28.1152C120.132 29.5965 119.776 31.4137 119.776 33.5668C119.776 35.72 120.132 37.5372 120.845 39.0185C121.565 40.4998 122.532 41.6209 123.747 42.3818C124.969 43.1426 126.333 43.5231 127.838 43.5231C128.664 43.5231 129.457 43.4098 130.218 43.1831C130.979 42.9565 131.671 42.6205 132.294 42.1753C132.926 41.7221 133.46 41.1676 133.897 40.5119C134.342 39.8482 134.654 39.0873 134.832 38.2293H137.843C137.617 39.5001 137.204 40.6374 136.605 41.6411C136.006 42.6448 135.261 43.4988 134.371 44.203C133.48 44.8991 132.481 45.4293 131.372 45.7936C130.271 46.1578 129.093 46.34 127.838 46.34C125.718 46.34 123.832 45.8219 122.18 44.7858C120.529 43.7497 119.23 42.2765 118.283 40.3662C117.336 38.4559 116.862 36.1895 116.862 33.5668C116.862 30.9442 117.336 28.6778 118.283 26.7675C119.23 24.8572 120.529 23.384 122.18 22.3479C123.832 21.3118 125.718 20.7937 127.838 20.7937C129.093 20.7937 130.271 20.9758 131.372 21.3401C132.481 21.7044 133.48 22.2386 134.371 22.9428C135.261 23.6389 136.006 24.4889 136.605 25.4926C137.204 26.4882 137.617 27.6255 137.843 28.9044ZM149.718 46V21.1337H152.729V43.3288H164.288V46H149.718ZM178.549 46H175.392L184.523 21.1337H187.631L196.762 46H193.605L186.174 25.0676H185.98L178.549 46ZM179.715 36.2866H192.439V38.9578H179.715V36.2866ZM221.243 27.3503C221.097 26.1199 220.506 25.1648 219.47 24.4848C218.434 23.8049 217.163 23.4649 215.658 23.4649C214.557 23.4649 213.594 23.643 212.768 23.9991C211.95 24.3553 211.311 24.845 210.85 25.4683C210.396 26.0916 210.17 26.7998 210.17 27.5931C210.17 28.2569 210.328 28.8275 210.643 29.3051C210.967 29.7746 211.38 30.1672 211.882 30.4828C212.384 30.7904 212.91 31.0454 213.46 31.2478C214.011 31.442 214.516 31.5999 214.978 31.7213L217.503 32.4012C218.151 32.5712 218.871 32.806 219.665 33.1055C220.466 33.405 221.231 33.8137 221.959 34.3318C222.696 34.8417 223.303 35.4974 223.781 36.2987C224.258 37.1001 224.497 38.0836 224.497 39.2492C224.497 40.5929 224.145 41.807 223.441 42.8917C222.744 43.9764 221.725 44.8384 220.381 45.4779C219.045 46.1174 217.422 46.4371 215.512 46.4371C213.731 46.4371 212.189 46.1497 210.886 45.575C209.591 45.0003 208.571 44.199 207.826 43.171C207.09 42.143 206.673 40.949 206.576 39.5892H209.684C209.765 40.5281 210.081 41.3052 210.631 41.9204C211.19 42.5275 211.894 42.9808 212.744 43.2802C213.602 43.5716 214.525 43.7174 215.512 43.7174C216.661 43.7174 217.694 43.5312 218.608 43.1588C219.523 42.7784 220.247 42.2522 220.782 41.5804C221.316 40.9005 221.583 40.1072 221.583 39.2006C221.583 38.375 221.352 37.7031 220.891 37.1851C220.429 36.667 219.822 36.2461 219.07 35.9223C218.317 35.5986 217.503 35.3153 216.629 35.0724L213.569 34.1982C211.627 33.6397 210.089 32.8424 208.955 31.8063C207.822 30.7702 207.256 29.4144 207.256 27.7388C207.256 26.3465 207.632 25.1324 208.385 24.0963C209.146 23.0521 210.166 22.2426 211.445 21.6679C212.732 21.0851 214.168 20.7937 215.755 20.7937C217.358 20.7937 218.782 21.0811 220.029 21.6558C221.275 22.2224 222.263 22.9995 222.991 23.987C223.728 24.9745 224.116 26.0956 224.157 27.3503H221.243ZM250.056 27.3503C249.91 26.1199 249.319 25.1648 248.283 24.4848C247.247 23.8049 245.976 23.4649 244.47 23.4649C243.37 23.4649 242.406 23.643 241.581 23.9991C240.763 24.3553 240.124 24.845 239.662 25.4683C239.209 26.0916 238.982 26.7998 238.982 27.5931C238.982 28.2569 239.14 28.8275 239.456 29.3051C239.78 29.7746 240.193 30.1672 240.694 30.4828C241.196 30.7904 241.722 31.0454 242.273 31.2478C242.823 31.442 243.329 31.5999 243.791 31.7213L246.316 32.4012C246.964 32.5712 247.684 32.806 248.477 33.1055C249.279 33.405 250.044 33.8137 250.772 34.3318C251.509 34.8417 252.116 35.4974 252.593 36.2987C253.071 37.1001 253.31 38.0836 253.31 39.2492C253.31 40.5929 252.958 41.807 252.253 42.8917C251.557 43.9764 250.537 44.8384 249.194 45.4779C247.858 46.1174 246.235 46.4371 244.325 46.4371C242.544 46.4371 241.002 46.1497 239.699 45.575C238.404 45.0003 237.384 44.199 236.639 43.171C235.902 42.143 235.486 40.949 235.388 39.5892H238.497C238.578 40.5281 238.893 41.3052 239.444 41.9204C240.002 42.5275 240.707 42.9808 241.556 43.2802C242.414 43.5716 243.337 43.7174 244.325 43.7174C245.474 43.7174 246.506 43.5312 247.421 43.1588C248.336 42.7784 249.06 42.2522 249.594 41.5804C250.129 40.9005 250.396 40.1072 250.396 39.2006C250.396 38.375 250.165 37.7031 249.704 37.1851C249.242 36.667 248.635 36.2461 247.882 35.9223C247.13 35.5986 246.316 35.3153 245.442 35.0724L242.382 34.1982C240.439 33.6397 238.901 32.8424 237.768 31.8063C236.635 30.7702 236.068 29.4144 236.068 27.7388C236.068 26.3465 236.445 25.1324 237.198 24.0963C237.958 23.0521 238.978 22.2426 240.257 21.6679C241.544 21.0851 242.981 20.7937 244.568 20.7937C246.17 20.7937 247.595 21.0811 248.842 21.6558C250.088 22.2224 251.076 22.9995 251.804 23.987C252.541 24.9745 252.929 26.0956 252.97 27.3503H250.056Z" fill="#403937"/>
<defs>
<filter id="filter0_d_109_26" x="0" y="0" width="45.4034" height="41.5553" filterUnits="userSpaceOnUse" color-interpolation-filters="sRGB">
<feFlood flood-opacity="0" result="BackgroundImageFix"/>
<feColorMatrix in="SourceAlpha" type="matrix" values="0 0 0 0 0 0 0 0 0 0 0 0 0 0 0 0 0 0 127 0" result="hardAlpha"/>
<feOffset dy="4"/>
<feGaussianBlur stdDeviation="2"/>
<feComposite in2="hardAlpha" operator="out"/>
<feColorMatrix type="matrix" values="0 0 0 0 0 0 0 0 0 0 0 0 0 0 0 0 0 0 0.1 0"/>
<feBlend mode="normal" in2="BackgroundImageFix" result="effect1_dropShadow_109_26"/>
<feBlend mode="normal" in="SourceGraphic" in2="effect1_dropShadow_109_26" result="shape"/>
</filter>
<filter id="filter1_d_109_26" x="5.7627" y="21.6174" width="37.7201" height="34.6484" filterUnits="userSpaceOnUse" color-interpolation-filters="sRGB">
<feFlood flood-opacity="0" result="BackgroundImageFix"/>
<feColorMatrix in="SourceAlpha" type="matrix" values="0 0 0 0 0 0 0 0 0 0 0 0 0 0 0 0 0 0 127 0" result="hardAlpha"/>
<feOffset dy="4"/>
<feGaussianBlur stdDeviation="2"/>
<feComposite in2="hardAlpha" operator="out"/>
<feColorMatrix type="matrix" values="0 0 0 0 0 0 0 0 0 0 0 0 0 0 0 0 0 0 0.1 0"/>
<feBlend mode="normal" in2="BackgroundImageFix" result="effect1_dropShadow_109_26"/>
<feBlend mode="normal" in="SourceGraphic" in2="effect1_dropShadow_109_26" result="shape"/>
</filter>
<filter id="filter2_d_109_26" x="11.2537" y="39.0198" width="30.4151" height="28.9806" filterUnits="userSpaceOnUse" color-interpolation-filters="sRGB">
<feFlood flood-opacity="0" result="BackgroundImageFix"/>
<feColorMatrix in="SourceAlpha" type="matrix" values="0 0 0 0 0 0 0 0 0 0 0 0 0 0 0 0 0 0 127 0" result="hardAlpha"/>
<feOffset dy="4"/>
<feGaussianBlur stdDeviation="2"/>
<feComposite in2="hardAlpha" operator="out"/>
<feColorMatrix type="matrix" values="0 0 0 0 0 0 0 0 0 0 0 0 0 0 0 0 0 0 0.1 0"/>
<feBlend mode="normal" in2="BackgroundImageFix" result="effect1_dropShadow_109_26"/>
<feBlend mode="normal" in="SourceGraphic" in2="effect1_dropShadow_109_26" result="shape"/>
</filter>
<linearGradient id="paint0_linear_109_26" x1="39.3839" y1="43.4497" x2="15.2968" y2="43.8114" gradientUnits="userSpaceOnUse">
<stop stop-color="white"/>
<stop offset="1" stop-color="white"/>
</linearGradient>
<linearGradient id="paint1_linear_109_26" x1="41.2922" y1="27.2542" x2="9.82139" y2="27.7261" gradientUnits="userSpaceOnUse">
<stop stop-color="white"/>
<stop offset="1" stop-color="white"/>
</linearGradient>
</defs>
</svg>
