<svg width="46" height="68" viewBox="0 0 46 68" fill="none" xmlns="http://www.w3.org/2000/svg">
<path opacity="0.5" d="M39.4691 48.2663C39.4691 48.2663 27.6321 45.1115 16.8912 46.9337L15.2412 39.1298C15.2412 39.1298 29.7693 38.2597 38.1973 40.3266L39.4691 48.2663Z" fill="url(#paint0_linear_107_19)"/>
<path opacity="0.5" d="M41.4035 33.5556C41.4035 33.5556 25.9409 29.4359 11.9 31.8154L9.74878 21.6039C9.74878 21.6039 28.728 20.4621 39.7394 23.1684L41.4023 33.5556H41.4035Z" fill="url(#paint1_linear_107_19)"/>
<g filter="url(#filter0_d_107_19)">
<path d="M11.6692 17.3351L36.0458 28.4425C40.2124 30.5914 41.4034 33.5553 41.4034 33.5553L41.3624 30.8619L41.3085 26.8381L41.2945 26.3077C41.2125 21.223 38.197 16.6418 33.5573 14.6018L11.1692 4.71934C5.20384 1.83504 4 0 4 0L4.02694 1.56335L4.06792 4.37739L4.0808 5.69716C4.11508 8.15621 4.8463 10.5551 6.18954 12.6151C7.53278 14.6752 9.4329 16.3118 11.6692 17.3351V17.3351Z" fill="#2F91E0"/>
</g>
<g filter="url(#filter1_d_107_19)">
<path d="M15.8498 35.3773L35.2202 44.2C38.5342 45.9132 39.4828 48.2659 39.4828 48.2659L39.4547 46.131L39.4008 42.9352V42.5137C39.3749 40.5385 38.7824 38.6124 37.6938 36.9641C36.6052 35.3158 35.0662 34.0148 33.2598 33.2155L15.4716 25.3695C10.723 23.0859 9.7627 21.6174 9.7627 21.6174L9.77558 22.8681L9.80368 25.0978L9.81656 26.1447C9.8436 28.0971 10.4251 30.0016 11.4934 31.6361C12.5616 33.2705 14.0725 34.5676 15.8498 35.3761V35.3773Z" fill="#2F91E0"/>
</g>
<g filter="url(#filter2_d_107_19)">
<path d="M19.8535 49.8579L34.4636 56.8045C36.9661 58.1512 37.6687 60.0003 37.6687 60.0003L37.6418 58.314L37.602 55.7986V55.459C37.547 52.2772 35.7482 49.4222 32.9623 48.1446L19.5549 41.9708C15.9703 40.1756 15.2537 39.0198 15.2537 39.0198L15.2665 39.9988L15.2935 41.753L15.3075 42.5692C15.3473 45.7229 17.1203 48.565 19.8524 49.8567L19.8535 49.8579Z" fill="#2F91E0"/>
</g>
<defs>
<filter id="filter0_d_107_19" x="0" y="0" width="45.4034" height="41.5553" filterUnits="userSpaceOnUse" color-interpolation-filters="sRGB">
<feFlood flood-opacity="0" result="BackgroundImageFix"/>
<feColorMatrix in="SourceAlpha" type="matrix" values="0 0 0 0 0 0 0 0 0 0 0 0 0 0 0 0 0 0 127 0" result="hardAlpha"/>
<feOffset dy="4"/>
<feGaussianBlur stdDeviation="2"/>
<feComposite in2="hardAlpha" operator="out"/>
<feColorMatrix type="matrix" values="0 0 0 0 0 0 0 0 0 0 0 0 0 0 0 0 0 0 0.1 0"/>
<feBlend mode="normal" in2="BackgroundImageFix" result="effect1_dropShadow_107_19"/>
<feBlend mode="normal" in="SourceGraphic" in2="effect1_dropShadow_107_19" result="shape"/>
</filter>
<filter id="filter1_d_107_19" x="5.7627" y="21.6174" width="37.7201" height="34.6484" filterUnits="userSpaceOnUse" color-interpolation-filters="sRGB">
<feFlood flood-opacity="0" result="BackgroundImageFix"/>
<feColorMatrix in="SourceAlpha" type="matrix" values="0 0 0 0 0 0 0 0 0 0 0 0 0 0 0 0 0 0 127 0" result="hardAlpha"/>
<feOffset dy="4"/>
<feGaussianBlur stdDeviation="2"/>
<feComposite in2="hardAlpha" operator="out"/>
<feColorMatrix type="matrix" values="0 0 0 0 0 0 0 0 0 0 0 0 0 0 0 0 0 0 0.1 0"/>
<feBlend mode="normal" in2="BackgroundImageFix" result="effect1_dropShadow_107_19"/>
<feBlend mode="normal" in="SourceGraphic" in2="effect1_dropShadow_107_19" result="shape"/>
</filter>
<filter id="filter2_d_107_19" x="11.2537" y="39.0198" width="30.4151" height="28.9806" filterUnits="userSpaceOnUse" color-interpolation-filters="sRGB">
<feFlood flood-opacity="0" result="BackgroundImageFix"/>
<feColorMatrix in="SourceAlpha" type="matrix" values="0 0 0 0 0 0 0 0 0 0 0 0 0 0 0 0 0 0 127 0" result="hardAlpha"/>
<feOffset dy="4"/>
<feGaussianBlur stdDeviation="2"/>
<feComposite in2="hardAlpha" operator="out"/>
<feColorMatrix type="matrix" values="0 0 0 0 0 0 0 0 0 0 0 0 0 0 0 0 0 0 0.1 0"/>
<feBlend mode="normal" in2="BackgroundImageFix" result="effect1_dropShadow_107_19"/>
<feBlend mode="normal" in="SourceGraphic" in2="effect1_dropShadow_107_19" result="shape"/>
</filter>
<linearGradient id="paint0_linear_107_19" x1="39.3839" y1="43.4497" x2="15.2968" y2="43.8114" gradientUnits="userSpaceOnUse">
<stop stop-color="white"/>
<stop offset="1" stop-color="white"/>
</linearGradient>
<linearGradient id="paint1_linear_107_19" x1="41.2922" y1="27.2542" x2="9.82139" y2="27.7261" gradientUnits="userSpaceOnUse">
<stop stop-color="white"/>
<stop offset="1" stop-color="white"/>
</linearGradient>
</defs>
</svg>
